<svg width="40" height="40" viewBox="0 0 40 40" fill="none" xmlns="http://www.w3.org/2000/svg">
<rect y="-0.00598145" width="40" height="40" rx="8" fill="#00DBB6"/>
<path d="M27.895 14.994H16.105C15.4947 14.994 15 15.4887 15 16.099V27.889C15 28.4993 15.4947 28.994 16.105 28.994H27.895C28.5053 28.994 29 28.4993 29 27.889V16.099C29 15.4887 28.5053 14.994 27.895 14.994Z" stroke="white" stroke-width="1.5" stroke-linecap="round" stroke-linejoin="round"/>
<path d="M15 24.994H13C12.4696 24.994 11.9609 24.7833 11.5858 24.4082C11.2107 24.0332 11 23.5245 11 22.994V12.994C11 12.4636 11.2107 11.9549 11.5858 11.5798C11.9609 11.2047 12.4696 10.994 13 10.994H23C23.5304 10.994 24.0391 11.2047 24.4142 11.5798C24.7893 11.9549 25 12.4636 25 12.994V14.994" stroke="white" stroke-width="1.5" stroke-linecap="round" stroke-linejoin="round"/>
</svg>
