<svg width="24" height="25" viewBox="0 0 24 25" fill="none" xmlns="http://www.w3.org/2000/svg">
<g id="Group">
<path id="Path" fill-rule="evenodd" clip-rule="evenodd" d="M4.85425 3.80673H6.998C11.9706 3.80673 16.0018 7.83785 16.0018 12.8105V16.1539C16.0018 16.5174 15.707 16.8121 15.3435 16.8121H12.0001C7.02745 16.8121 2.99634 12.781 2.99634 7.8084V5.66465C2.99634 5.1719 3.19208 4.69933 3.54051 4.3509C3.88893 4.00248 4.3615 3.80673 4.85425 3.80673Z" stroke="black" stroke-width="1.5" stroke-linecap="round" stroke-linejoin="round"/>
<path id="Path_2" d="M6.13913 6.94227C6.10624 6.94241 6.07967 6.96915 6.07975 7.00205C6.07984 7.03494 6.10655 7.06155 6.13945 7.0615C6.17234 7.06146 6.19898 7.03478 6.19898 7.00189C6.19907 6.98601 6.19279 6.97076 6.18154 6.95955C6.17028 6.94834 6.15501 6.94212 6.13913 6.94227" stroke="black" stroke-width="1.5" stroke-linecap="round" stroke-linejoin="round"/>
<path id="Path_3" d="M9.49905 7.30118V7.30118C9.49905 8.95872 8.15535 10.3024 6.4978 10.3024V10.3024" stroke="black" stroke-width="1.5" stroke-linecap="round" stroke-linejoin="round"/>
<path id="Path_4" d="M12.2861 5.53445H15.3728C15.8016 5.53445 16.2128 5.7048 16.516 6.00801V6.00801C16.8192 6.31122 16.9896 6.72247 16.9896 7.15128C16.9896 7.58009 16.8192 7.99133 16.516 8.29454L15.3506 9.45996" stroke="black" stroke-width="1.5" stroke-linecap="round" stroke-linejoin="round"/>
<path id="Path_5" d="M4.72412 13.0965V16.1832C4.72412 16.612 4.89447 17.0232 5.19768 17.3264V17.3264C5.50089 17.6296 5.91214 17.8 6.34094 17.8C6.76975 17.8 7.181 17.6296 7.48421 17.3264L8.64963 16.161" stroke="black" stroke-width="1.5" stroke-linecap="round" stroke-linejoin="round"/>
<path id="Path_6" fill-rule="evenodd" clip-rule="evenodd" d="M18.212 19.0223H18.7572C19.5999 19.0223 20.4081 18.6875 21.0039 18.0917C20.4723 16.4967 18.8361 15.5472 17.1875 15.8769C16.1173 16.091 15.2807 16.9275 15.0666 17.9978C14.7369 19.6464 15.6864 21.2826 17.2814 21.8142C17.8773 21.2183 18.212 20.4102 18.212 19.5675L18.212 19.0223Z" stroke="black" stroke-width="1.5" stroke-linecap="round" stroke-linejoin="round"/>
</g>
</svg>
