<svg width="25" height="24" viewBox="0 0 25 24" fill="none" xmlns="http://www.w3.org/2000/svg">
<g id="Group">
<g id="Group_2">
<path id="Path" d="M12.9691 3.02278C14.3329 4.38649 14.3329 6.5975 12.9691 7.96121C11.6054 9.32492 9.39443 9.32492 8.03072 7.96121C6.66701 6.5975 6.66701 4.38649 8.03072 3.02278C9.39443 1.65907 11.6054 1.65907 12.9691 3.02278" stroke="white" stroke-width="1.5" stroke-linecap="round" stroke-linejoin="round"/>
<path id="Path_2" d="M14.863 12.796C13.564 12.277 12.04 11.991 10.5 11.991C6.452 11.991 2.5 13.958 2.5 16.983V17.983C2.5 18.535 2.948 18.983 3.5 18.983H12.913" stroke="white" stroke-width="1.5" stroke-linecap="round" stroke-linejoin="round"/>
<path id="Path_3" d="M17.5 22C14.739 22 12.5 19.762 12.5 17C12.5 14.296 14.8 11.997 17.504 12C20.264 12.002 22.5 14.24 22.5 17C22.5 19.761 20.262 22 17.5 22" stroke="white" stroke-width="1.5" stroke-linecap="round" stroke-linejoin="round"/>
<path id="Path_4" d="M17.5 15V19" stroke="white" stroke-width="1.5" stroke-linecap="round" stroke-linejoin="round"/>
<path id="Path_5" d="M19.5 17H15.5" stroke="white" stroke-width="1.5" stroke-linecap="round" stroke-linejoin="round"/>
</g>
</g>
</svg>
