<svg width="48" height="28" viewBox="0 0 48 28" fill="none" xmlns="http://www.w3.org/2000/svg">
<g id="Group 1">
<path id="Vector" d="M28.6348 14.6609L28.7807 15.2079C28.7807 11.9986 29.51 8.0963 31.0053 3.5011C31.5159 1.89643 31.8441 0.911745 31.99 0.547047C32.1359 0.182349 32.2818 0 32.4641 0C32.537 0 32.6465 0 32.7923 0.0364694C33.5217 0.182349 33.9958 0.328229 34.2146 0.437637C34.4335 0.547047 34.5429 0.692927 34.5429 0.875276C34.5429 0.911745 34.5429 1.02116 34.5064 1.2035C33.6311 4.52226 33.1206 7.7316 32.9382 10.868C32.9017 11.8162 32.8653 13.0197 32.8653 13.7491C33.3394 13.2386 34.3241 12.2174 34.8346 11.7068C36.1476 10.4304 37.424 8.8257 38.664 6.8928C39.7581 5.17871 40.451 4.12109 40.7428 3.75639C40.7792 3.71992 40.8157 3.71992 40.8522 3.71992C41.1439 3.71992 41.9463 4.15756 43.2592 5.03284C44.5721 5.90811 45.2285 6.38222 45.2285 6.49163C45.2285 6.74692 44.2439 7.91395 42.238 10.0292C41.1804 11.1233 39.8675 12.4727 39.1016 13.275C39.3204 13.7856 39.7945 14.8068 40.0498 15.3173C40.6334 16.5208 41.4357 17.6879 42.4568 18.782C43.478 19.8761 44.4627 20.6419 45.4109 21.0796C45.6662 21.189 46.0309 21.3349 46.505 21.5537C46.9791 21.7725 47.2708 21.8819 47.3438 21.9184C47.5626 22.0278 47.8179 22.1372 48.0003 22.2101C47.7814 22.7936 47.3073 23.9971 47.052 24.6171C46.3956 26.2218 45.9944 27.0241 45.8485 27.0241C45.5203 27.0241 44.718 26.5865 43.4415 25.6748C42.1651 24.763 41.1804 23.9607 40.5239 23.2678C38.8099 21.4807 37.5699 19.4384 36.804 17.1408C36.4029 15.9738 36.2205 15.3903 36.2205 15.3903C36.1111 15.3903 35.6005 15.6456 34.7252 16.1926C34.2511 16.4844 33.6676 16.8491 33.3029 17.0679C33.3394 17.2867 33.4488 17.7608 33.5217 18.0161C33.5947 18.3808 33.9229 19.4749 34.5429 21.2984C34.944 22.3925 35.1264 23.1583 35.1264 23.6325C35.1264 23.7419 35.1264 23.7783 35.1264 23.7783C34.9441 23.9242 34.2147 24.216 32.9747 24.6171C31.7347 25.0183 30.9688 25.2007 30.6406 25.2007C30.6041 25.2007 30.6041 25.2007 30.5677 25.2007C30.3489 25.1277 30.0571 24.2889 29.6559 22.6478C29.2547 21.0066 28.963 19.3655 28.7807 17.7243C28.6712 16.5938 28.6348 15.5726 28.6348 14.6609Z" fill="white"/>
<path id="Vector_2" d="M0 9.95626L0.072946 9.84685C0.072946 7.00221 0.619988 4.08462 1.75055 1.09409C1.82349 0.911745 1.93291 0.838806 2.07879 0.838806C2.29761 0.838806 3.13641 1.16703 4.5952 1.82349C5.36107 2.15172 6.30928 2.58936 6.85633 2.84465C6.67398 3.24581 6.30929 4.04815 6.12694 4.48579C4.99637 6.96574 4.44932 9.33628 4.44932 11.5974C4.44932 13.7127 4.92343 15.8279 5.90811 17.9432C6.1634 18.5267 6.49164 19.2561 6.67399 19.6937C7.07516 19.329 7.87749 18.5996 8.27866 18.1984C9.44569 17.1408 10.0292 16.4844 10.0292 16.1926C10.0292 15.5726 9.84686 14.6973 9.44569 13.5303C9.04452 12.3268 8.67982 10.868 8.31512 9.11746C7.95042 7.36691 7.76808 6.19987 7.76808 5.61635C7.76808 5.47047 7.76808 5.39754 7.76808 5.39754C7.91396 5.25166 8.3516 5.10578 9.081 4.99637C9.44569 4.9599 9.88333 4.92343 10.1386 4.88696C10.248 5.25166 10.4669 5.98105 10.5763 6.34575C10.941 7.62219 11.3786 8.93511 11.8892 10.2845C12.3633 11.6339 12.655 12.2903 12.7644 12.2903C12.9103 12.2903 13.1656 11.7068 13.5303 10.5033C13.895 9.37275 14.0774 7.76807 14.0774 5.68929C14.0774 4.66814 14.0774 3.39169 14.0774 2.62583C14.6244 2.58936 15.755 2.51642 16.3385 2.47995C16.6667 2.47995 17.0679 2.44348 17.5055 2.40701C17.9432 2.37054 18.2714 2.37054 18.4902 2.37054C18.709 2.37054 18.8549 2.37054 18.9278 2.37054C18.9278 2.37054 18.9278 2.37054 18.9643 2.37054C19.1467 2.37054 19.2196 2.69877 19.2196 3.39169C19.2196 3.90227 19.2196 4.33991 19.2196 4.70461C19.0737 8.60688 17.9432 12.1445 15.8279 15.2444C15.5726 15.6091 15.2444 16.0832 15.062 16.3385C15.2444 16.5573 15.6456 16.9585 15.8644 17.1773C16.3385 17.7243 16.9949 18.2714 17.7973 18.8184C18.162 19.0737 18.5996 19.3655 18.8549 19.5478C19.0737 19.2925 19.5114 18.782 19.7302 18.4902C20.8243 17.0679 21.6266 15.6091 22.1372 14.1138C22.4654 13.1656 22.6113 11.7433 22.6113 9.81038C22.6113 7.76807 22.4654 6.01752 22.1372 4.55873C21.8819 3.46463 21.7725 2.69877 21.7725 2.26113C21.7725 2.22466 21.7725 2.22466 21.809 2.15172C21.8819 2.07878 22.6478 1.89643 24.0701 1.60467C25.4924 1.31291 26.4042 1.16703 26.8053 1.16703C26.8418 1.2035 26.8418 1.2035 26.9512 1.2035C27.0242 1.27644 27.0606 2.99052 27.0606 6.34575C27.0606 9.77391 26.9147 11.9986 26.5865 13.0197C25.8206 15.5361 24.5807 17.7608 22.8301 19.7302C22.3925 20.2408 21.809 20.8972 21.4807 21.2984C21.6996 21.4078 22.1737 21.6266 22.4289 21.736C23.0489 22.0278 23.3407 22.2101 23.3407 22.356C23.3407 22.4289 22.976 23.1583 22.2101 24.5807C21.4443 25.9665 21.0066 26.7324 20.8972 26.8783C20.8608 26.8783 20.8607 26.8783 20.8607 26.8783C20.6419 26.8783 19.6572 26.2218 17.9432 24.8724C16.2291 23.523 14.9162 22.4289 14.0409 21.5537C12.7644 20.2772 11.9986 19.6572 11.7798 19.6572C11.7068 19.6572 11.6704 19.6937 11.6339 19.7302C11.3786 20.0584 10.7951 20.569 9.84686 21.2254C8.89864 21.9184 8.42454 22.4289 8.42454 22.7207C8.42454 22.7572 8.42453 22.7572 8.461 22.7936C8.461 22.8301 8.461 22.8666 8.461 22.8666C8.461 22.9031 8.461 22.9395 8.461 22.976C8.461 23.0125 8.49747 23.0489 8.49747 23.0489C8.49747 23.4501 7.95042 23.9971 6.85633 24.6536C6.81986 24.6536 6.81986 24.6536 6.78339 24.6536C6.38223 24.6536 5.50695 23.6689 4.1211 21.6631C2.73525 19.6937 1.75056 17.9796 1.20352 16.5208C0.401179 14.4785 0 12.2903 0 9.95626Z" fill="white"/>
</g>
</svg>
