<svg width="20" height="20" viewBox="0 0 20 20" fill="none" xmlns="http://www.w3.org/2000/svg">
<g id="Group">
<path id="Vector" d="M17.842 6.29908L11.842 1.63208C11.3154 1.22242 10.6672 1 10 1C9.3328 1 8.68463 1.22242 8.158 1.63208L2.158 6.29908C1.79731 6.57947 1.50548 6.93858 1.30478 7.34898C1.10409 7.75939 0.999839 8.21023 1 8.66708V16.0001C1 16.7957 1.31607 17.5588 1.87868 18.1214C2.44129 18.684 3.20435 19.0001 4 19.0001H16C16.7956 19.0001 17.5587 18.684 18.1213 18.1214C18.6839 17.5588 19 16.7957 19 16.0001V8.66708C19 7.74108 18.573 6.86708 17.842 6.29908Z" stroke="white" stroke-width="1.5"/>
<path id="Vector_2" d="M7 15H13" stroke="white" stroke-width="1.5" stroke-linecap="round" stroke-linejoin="round"/>
</g>
</svg>
