<svg width="33" height="32" viewBox="0 0 33 32" fill="none" xmlns="http://www.w3.org/2000/svg">
<path d="M23.1664 8.00003H25.833H28.4997" stroke="white" stroke-width="2" stroke-linecap="round"/>
<path d="M25.833 5.33336V10.6667" stroke="white" stroke-width="2" stroke-linecap="round"/>
<path d="M10.7328 19.4303L12.2341 16.2536C12.591 15.4985 13.5464 15.2536 14.2225 15.7441L15.559 16.7137C16.2079 17.1844 17.1225 16.9802 17.5095 16.2782L18.6387 14.2304C19.1582 13.2882 20.5223 13.3177 21.0006 14.2815L23.5443 19.4073C23.9841 20.2936 23.3393 21.3333 22.3499 21.3333H11.9383C10.96 21.3333 10.3148 20.3148 10.7328 19.4303Z" stroke="white" stroke-width="2" stroke-linecap="round"/>
<path d="M19.3109 5.33333H8.28382C7.46701 5.33333 5.83337 5.83529 5.83337 7.84313C5.83337 9.85098 5.83337 19.9739 5.83337 24.7843C5.83337 25.4118 6.32346 26.6667 8.28382 26.6667C10.2442 26.6667 21.3529 26.6667 26.6622 26.6667C27.2748 26.6667 28.5 26.1647 28.5 24.1569C28.5 22.149 28.5 15.7908 28.5 12.8627" stroke="white" stroke-width="2" stroke-linecap="round"/>
</svg>
