<svg width="18" height="18" viewBox="0 0 18 18" fill="none" xmlns="http://www.w3.org/2000/svg">
<g id="Group 52">
<path id="Vector" d="M14.7778 1H12.5555C11.3282 1 10.3333 1.99492 10.3333 3.22222V5.44444C10.3333 6.67174 11.3282 7.66667 12.5555 7.66667H14.7778C16.0051 7.66667 17 6.67174 17 5.44444V3.22222C17 1.99492 16.0051 1 14.7778 1Z" stroke="white" stroke-width="1.5" stroke-linecap="round" stroke-linejoin="round"/>
<path id="Vector_2" d="M14.7778 10.3333H12.5555C11.3282 10.3333 10.3333 11.3282 10.3333 12.5555V14.7778C10.3333 16.0051 11.3282 17 12.5555 17H14.7778C16.0051 17 17 16.0051 17 14.7778V12.5555C17 11.3282 16.0051 10.3333 14.7778 10.3333Z" stroke="white" stroke-width="1.5" stroke-linecap="round" stroke-linejoin="round"/>
<path id="Vector_3" d="M5.44444 1H3.22222C1.99492 1 1 1.99492 1 3.22222V5.44444C1 6.67174 1.99492 7.66667 3.22222 7.66667H5.44444C6.67174 7.66667 7.66667 6.67174 7.66667 5.44444V3.22222C7.66667 1.99492 6.67174 1 5.44444 1Z" stroke="white" stroke-width="1.5" stroke-linecap="round" stroke-linejoin="round"/>
<path id="Vector_4" d="M5.44444 10.3333H3.22222C1.99492 10.3333 1 11.3282 1 12.5555V14.7778C1 16.0051 1.99492 17 3.22222 17H5.44444C6.67174 17 7.66667 16.0051 7.66667 14.7778V12.5555C7.66667 11.3282 6.67174 10.3333 5.44444 10.3333Z" stroke="white" stroke-width="1.5" stroke-linecap="round" stroke-linejoin="round"/>
</g>
</svg>
