<svg width="21" height="20" viewBox="0 0 21 20" fill="none" xmlns="http://www.w3.org/2000/svg">
<g id="Group">
<path id="Vector" d="M1.5 17C1.5 17.5304 1.71071 18.0391 2.08579 18.4142C2.46086 18.7893 2.96957 19 3.5 19" stroke="white" stroke-width="1.5" stroke-linecap="round" stroke-linejoin="round"/>
<path id="Vector_2" d="M1.5 3V17" stroke="white" stroke-width="1.5" stroke-linecap="round" stroke-linejoin="round"/>
<path id="Vector_3" d="M7.5 19H3.5" stroke="white" stroke-width="1.5" stroke-linecap="round" stroke-linejoin="round"/>
<path id="Vector_4" d="M19.5 3C19.5 2.46957 19.2893 1.96086 18.9142 1.58579C18.5391 1.21071 18.0304 1 17.5 1" stroke="white" stroke-width="1.5" stroke-linecap="round" stroke-linejoin="round"/>
<path id="Vector_5" d="M19.5 6V3" stroke="white" stroke-width="1.5" stroke-linecap="round" stroke-linejoin="round"/>
<path id="Vector_6" d="M3.5 1H17.5" stroke="white" stroke-width="1.5" stroke-linecap="round" stroke-linejoin="round"/>
<path id="Vector_7" d="M1.5 3C1.5 2.46957 1.71071 1.96086 2.08579 1.58579C2.46086 1.21071 2.96957 1 3.5 1" stroke="white" stroke-width="1.5" stroke-linecap="round" stroke-linejoin="round"/>
<path id="Vector_8" d="M7 15.062C6.60218 15.062 6.22064 14.904 5.93934 14.6227C5.65804 14.3414 5.5 13.9598 5.5 13.562C5.5 13.1642 5.65804 12.7827 5.93934 12.5014C6.22064 12.22 6.60218 12.062 7 12.062C7.39782 12.062 7.77936 12.22 8.06066 12.5014C8.34196 12.7827 8.5 13.1642 8.5 13.562C8.5 13.9598 8.34196 14.3414 8.06066 14.6227C7.77936 14.904 7.39782 15.062 7 15.062Z" stroke="white" stroke-width="1.5" stroke-linecap="round" stroke-linejoin="round"/>
<path id="Vector_9" d="M5.5 5.06201H13.5" stroke="white" stroke-width="1.5" stroke-linecap="round" stroke-linejoin="round"/>
<path id="Vector_10" d="M5.5 8.56201H10.5" stroke="white" stroke-width="1.5" stroke-linecap="round" stroke-linejoin="round"/>
<path id="Vector_11" d="M12 18.5V18.094C12.0016 17.5391 12.2227 17.0074 12.6151 16.6151C13.0074 16.2227 13.5391 16.0016 14.094 16H17.406C17.9609 16.0016 18.4926 16.2227 18.8849 16.6151C19.2773 17.0074 19.4984 17.5391 19.5 18.094V18.5C19.5 18.6326 19.4473 18.7598 19.3536 18.8536C19.2598 18.9473 19.1326 19 19 19H12.5C12.3674 19 12.2402 18.9473 12.1464 18.8536C12.0527 18.7598 12 18.6326 12 18.5Z" stroke="white" stroke-width="1.5" stroke-linecap="round" stroke-linejoin="round"/>
<path id="Vector_12" d="M13.75 11.492C13.7516 11.0968 13.8702 10.7109 14.091 10.383C14.3117 10.0552 14.6246 9.80011 14.9902 9.64996C15.3558 9.49981 15.7576 9.46134 16.1451 9.53941C16.5325 9.61748 16.8881 9.80859 17.167 10.0886C17.4459 10.3686 17.6356 10.725 17.7122 11.1128C17.7887 11.5005 17.7486 11.9022 17.597 12.2672C17.4454 12.6322 17.189 12.9441 16.8603 13.1635C16.5316 13.3829 16.1452 13.5 15.75 13.5C15.4867 13.5 15.226 13.448 14.9828 13.347C14.7396 13.246 14.5188 13.098 14.333 12.9114C14.1471 12.7248 14 12.5034 13.9 12.2598C13.7999 12.0162 13.749 11.7553 13.75 11.492Z" stroke="white" stroke-width="1.5" stroke-linecap="round" stroke-linejoin="round"/>
</g>
</svg>
