<svg width="25" height="24" viewBox="0 0 25 24" fill="none" xmlns="http://www.w3.org/2000/svg">
<g id="Group">
<g id="Layer_2">
<circle id="Oval" cx="12.1667" cy="14.5" r="6.5" stroke="white" stroke-width="1.5" stroke-linecap="round" stroke-linejoin="round"/>
<path id="Path" d="M21.1667 10.5L22.1667 9.5" stroke="white" stroke-width="1.5" stroke-linecap="round" stroke-linejoin="round"/>
<path id="Path_2" d="M21.1667 18.5L22.1667 19.5" stroke="white" stroke-width="1.5" stroke-linecap="round" stroke-linejoin="round"/>
<path id="Path_3" d="M22.1667 14.5H23.1667" stroke="white" stroke-width="1.5" stroke-linecap="round" stroke-linejoin="round"/>
<path id="Path_4" d="M3.16666 18.5L2.16666 19.5" stroke="white" stroke-width="1.5" stroke-linecap="round" stroke-linejoin="round"/>
<path id="Path_5" d="M3.16666 10.5L2.16666 9.5" stroke="white" stroke-width="1.5" stroke-linecap="round" stroke-linejoin="round"/>
<path id="Path_6" d="M2.16666 14.5H1.16666" stroke="white" stroke-width="1.5" stroke-linecap="round" stroke-linejoin="round"/>
<path id="Path_7" d="M11.0094 8.10876L14.287 3.42651C14.4742 3.1592 14.7799 3 15.1062 3H18.6649C19.0378 2.99998 19.3797 3.20743 19.5519 3.53818C19.7241 3.86892 19.698 4.26801 19.4842 4.57349L16.1341 9.35938" stroke="white" stroke-width="1.5" stroke-linecap="round" stroke-linejoin="round"/>
<path id="Path_8" d="M12.1667 6.45557L10.0463 3.42651C9.85916 3.1592 9.55338 3 9.22708 3H5.66843C5.29553 2.99998 4.9536 3.20743 4.7814 3.53818C4.60919 3.86892 4.63531 4.26801 4.84916 4.57349L8.19925 9.35938" stroke="white" stroke-width="1.5" stroke-linecap="round" stroke-linejoin="round"/>
</g>
</g>
</svg>
