<svg width="20" height="20" viewBox="0 0 20 20" fill="none" xmlns="http://www.w3.org/2000/svg">
<g id="Group">
<path id="Path" fill-rule="evenodd" clip-rule="evenodd" d="M6 1H14C14.5523 1 15 1.44772 15 2V8C15 10.7614 12.7614 13 10 13V13C7.23858 13 5 10.7614 5 8V2C5 1.44772 5.44772 1 6 1Z" stroke="black" stroke-width="1.5" stroke-linecap="round" stroke-linejoin="round"/>
<path id="Path_2" d="M5.41668 10H5C2.79086 10 1 8.20914 1 6V4C1 3.44772 1.44772 3 2 3H5" stroke="black" stroke-width="1.5" stroke-linecap="round" stroke-linejoin="round"/>
<path id="Path_3" d="M14.5831 10H15C17.2092 10 19 8.20914 19 6V4C19 3.44772 18.5523 3 18 3H15" stroke="black" stroke-width="1.5" stroke-linecap="round" stroke-linejoin="round"/>
<path id="Path_4" fill-rule="evenodd" clip-rule="evenodd" d="M13.6659 16H6.33408C5.90364 16 5.5215 16.2754 5.38539 16.6838L5.05206 17.6838C4.95041 17.9887 5.00155 18.3239 5.1895 18.5847C5.37745 18.8455 5.67929 19 6.00074 19H13.9992C14.3207 19 14.6225 18.8455 14.8104 18.5847C14.9984 18.3239 15.0495 17.9887 14.9479 17.6838L14.6146 16.6838C14.4784 16.2754 14.0963 16 13.6659 16Z" stroke="black" stroke-width="1.5" stroke-linecap="round" stroke-linejoin="round"/>
<path id="Path_5" d="M10 13V16" stroke="black" stroke-width="1.5" stroke-linecap="round" stroke-linejoin="round"/>
</g>
</svg>
