<svg width="21" height="20" viewBox="0 0 21 20" fill="none" xmlns="http://www.w3.org/2000/svg">
<g id="Group">
<path id="Path" fill-rule="evenodd" clip-rule="evenodd" d="M6.5 1H14.5C15.0523 1 15.5 1.44772 15.5 2V8C15.5 10.7614 13.2614 13 10.5 13V13C7.73858 13 5.5 10.7614 5.5 8V2C5.5 1.44772 5.94772 1 6.5 1Z" stroke="white" stroke-width="1.5" stroke-linecap="round" stroke-linejoin="round"/>
<path id="Path_2" d="M5.91668 10H5.5C3.29086 10 1.5 8.20914 1.5 6V4C1.5 3.44772 1.94772 3 2.5 3H5.5" stroke="white" stroke-width="1.5" stroke-linecap="round" stroke-linejoin="round"/>
<path id="Path_3" d="M15.083 10H15.4999C17.709 10 19.4999 8.20914 19.4999 6V4C19.4999 3.44772 19.0522 3 18.4999 3H15.4999" stroke="white" stroke-width="1.5" stroke-linecap="round" stroke-linejoin="round"/>
<path id="Path_4" fill-rule="evenodd" clip-rule="evenodd" d="M14.1659 16H6.83408C6.40364 16 6.0215 16.2754 5.88539 16.6838L5.55206 17.6838C5.45041 17.9887 5.50155 18.3239 5.6895 18.5847C5.87745 18.8455 6.17929 19 6.50074 19H14.4992C14.8207 19 15.1225 18.8455 15.3104 18.5847C15.4984 18.3239 15.5495 17.9887 15.4479 17.6838L15.1146 16.6838C14.9784 16.2754 14.5963 16 14.1659 16Z" stroke="white" stroke-width="1.5" stroke-linecap="round" stroke-linejoin="round"/>
<path id="Path_5" d="M10.5 13V16" stroke="white" stroke-width="1.5" stroke-linecap="round" stroke-linejoin="round"/>
</g>
</svg>
