<svg width="24" height="24" viewBox="0 0 24 24" fill="none" xmlns="http://www.w3.org/2000/svg">
<g clip-path="url(#clip0_12269_56)">
<path d="M8.55296 10.108C9.05316 10.6082 9.33417 11.2866 9.33417 11.994C9.33417 12.7014 9.05316 13.3798 8.55296 13.88C8.05276 14.3802 7.37435 14.6612 6.66696 14.6612C5.95958 14.6612 5.28116 14.3802 4.78096 13.88C4.28076 13.3798 3.99976 12.7014 3.99976 11.994C3.99976 11.2866 4.28076 10.6082 4.78096 10.108C5.28116 9.60779 5.95958 9.32678 6.66696 9.32678C7.37435 9.32678 8.05276 9.60779 8.55296 10.108Z" stroke="white" stroke-width="1.5" stroke-linecap="round" stroke-linejoin="round"/>
<path d="M19.2189 4.77503C19.7191 5.27523 20.0001 5.95364 20.0001 6.66103C20.0001 7.36842 19.7191 8.04683 19.2189 8.54703C18.7187 9.04723 18.0403 9.32824 17.3329 9.32824C16.6256 9.32824 15.9471 9.04723 15.4469 8.54703C14.9466 8.0467 14.6655 7.3681 14.6655 6.66053C14.6655 5.95295 14.9466 5.27436 15.4469 4.77403C15.9473 4.2737 16.6259 3.99261 17.3334 3.99261C18.041 3.99261 18.7196 4.2737 19.2199 4.77403" stroke="white" stroke-width="1.5" stroke-linecap="round" stroke-linejoin="round"/>
<path d="M19.219 15.441C19.4667 15.6887 19.6631 15.9827 19.7972 16.3063C19.9312 16.6299 20.0002 16.9767 20.0002 17.327C20.0002 17.6773 19.9312 18.0241 19.7972 18.3477C19.6631 18.6713 19.4667 18.9653 19.219 19.213C18.9713 19.4607 18.6773 19.6571 18.3537 19.7912C18.0301 19.9252 17.6832 19.9942 17.333 19.9942C16.9827 19.9942 16.6359 19.9252 16.3123 19.7912C15.9887 19.6571 15.6947 19.4607 15.447 19.213C14.9468 18.7128 14.6658 18.0344 14.6658 17.327C14.6658 16.6196 14.9468 15.9412 15.447 15.441C15.9472 14.9408 16.6256 14.6598 17.333 14.6598C18.0404 14.6598 18.7188 14.9408 19.219 15.441Z" stroke="white" stroke-width="1.5" stroke-linecap="round" stroke-linejoin="round"/>
<path d="M9.04004 10.804L14.96 7.84399" stroke="white" stroke-width="1.5" stroke-linecap="round" stroke-linejoin="round"/>
<path d="M9.04004 13.184L14.96 16.144" stroke="white" stroke-width="1.5" stroke-linecap="round" stroke-linejoin="round"/>
</g>
<defs>
<clipPath id="clip0_12269_56">
<rect width="24" height="24" fill="white" transform="translate(0 -0.00598145)"/>
</clipPath>
</defs>
</svg>
