<svg width="24" height="24" viewBox="0 0 24 24" fill="none" xmlns="http://www.w3.org/2000/svg">
    <g id="success">
        <path id="Vector"
            d="M9.68944 3.00312C10.9395 1.66563 13.0605 1.66563 14.3106 3.00312C14.934 3.6702 15.8154 4.03527 16.7279 4.00443C18.5576 3.9426 20.0574 5.4424 19.9956 7.27206C19.9647 8.18461 20.3298 9.06597 20.9969 9.68944C22.3344 10.9395 22.3344 13.0605 20.9969 14.3106C20.3298 14.934 19.9647 15.8154 19.9956 16.7279C20.0574 18.5576 18.5576 20.0574 16.7279 19.9956C15.8154 19.9647 14.934 20.3298 14.3106 20.9969C13.0605 22.3344 10.9395 22.3344 9.68944 20.9969C9.06597 20.3298 8.18461 19.9647 7.27206 19.9956C5.4424 20.0574 3.9426 18.5576 4.00443 16.7279C4.03527 15.8154 3.6702 14.934 3.00312 14.3106C1.66563 13.0605 1.66563 10.9395 3.00312 9.68944C3.6702 9.06597 4.03527 8.18461 4.00443 7.27206C3.9426 5.4424 5.4424 3.9426 7.27206 4.00443C8.18461 4.03527 9.06597 3.6702 9.68944 3.00312Z"
            fill="#66FFB8" />
        <path id="Vector_2"
            d="M8.5 12L9.96217 13.7407C10.2254 14.0541 10.3571 14.2108 10.5267 14.2461C10.5812 14.2574 10.6373 14.2596 10.6925 14.2524C10.8644 14.2302 11.0076 14.0841 11.2941 13.7917L15.5 9.5"
            stroke="#00B7AA" stroke-width="1.5" stroke-linecap="round" stroke-linejoin="round" />
    </g>
</svg>