<svg width="25" height="24" viewBox="0 0 25 24" fill="none" xmlns="http://www.w3.org/2000/svg">
<path d="M13.4847 16.0889L11.4197 18.0979C11.3378 18.1777 11.2368 18.235 11.1263 18.2644C11.0158 18.2938 10.8996 18.2942 10.7889 18.2657C10.6782 18.2372 10.5767 18.1806 10.4942 18.1015C10.4117 18.0224 10.3509 17.9233 10.3177 17.8139L8.94173 13.2839" stroke="white" stroke-width="1.5" stroke-linecap="round" stroke-linejoin="round"/>
<path d="M15.7937 10.1099L11.8767 13.6449C11.7839 13.7288 11.7109 13.8322 11.663 13.9478C11.6151 14.0634 11.5935 14.1882 11.5999 14.3131C11.6062 14.438 11.6402 14.56 11.6995 14.6701C11.7588 14.7803 11.8419 14.8759 11.9427 14.9499L17.3207 18.9229C17.4425 19.0129 17.5849 19.071 17.7349 19.0916C17.8849 19.1123 18.0376 19.095 18.1792 19.0412C18.3207 18.9874 18.4465 18.899 18.545 18.784C18.6434 18.669 18.7114 18.5311 18.7427 18.3829L21.3837 5.93592C21.4127 5.79939 21.4043 5.65757 21.3593 5.52544C21.3144 5.3933 21.2346 5.27576 21.1284 5.18521C21.0222 5.09467 20.8935 5.03449 20.7559 5.01103C20.6183 4.98757 20.477 5.00169 20.3467 5.05192L4.83173 11.0359C4.73145 11.0743 4.64562 11.1429 4.58621 11.2324C4.52679 11.3218 4.49676 11.4275 4.50028 11.5348C4.5038 11.6421 4.54071 11.7457 4.60586 11.831C4.671 11.9163 4.76115 11.9792 4.86373 12.0109L8.94073 13.2829" stroke="white" stroke-width="1.5" stroke-linecap="round" stroke-linejoin="round"/>
</svg>
