<svg width="25" height="24" viewBox="0 0 25 24" fill="none" xmlns="http://www.w3.org/2000/svg">
<g id="ton" clip-path="url(#clip0_22639_1296)">
<path id="Vector" d="M12.5 24C19.1274 24 24.5 18.6274 24.5 12C24.5 5.37258 19.1274 0 12.5 0C5.87258 0 0.5 5.37258 0.5 12C0.5 18.6274 5.87258 24 12.5 24Z" fill="#0088CC"/>
<path id="Vector_2" fill-rule="evenodd" clip-rule="evenodd" d="M9.15703 7.92857H15.8856C16.1427 7.92857 16.357 7.97143 16.6142 8.1C16.9142 8.22857 17.0856 8.44286 17.1713 8.61429C17.1713 8.61429 17.1713 8.65715 17.2142 8.65715C17.3427 8.87143 17.4285 9.12857 17.4285 9.42857C17.4285 9.68572 17.3856 9.94286 17.2142 10.2L12.9713 17.4857C12.8856 17.6571 12.7142 17.7429 12.4999 17.7429C12.3285 17.7429 12.157 17.6571 12.0285 17.4857L7.87132 10.2C7.7856 10.0286 7.61418 9.81429 7.61418 9.47143C7.57132 9.17143 7.65703 8.91429 7.7856 8.65715C7.91418 8.4 8.12846 8.18572 8.42846 8.1C8.6856 7.92857 8.9856 7.92857 9.15703 7.92857ZM11.9856 8.95714H9.15703C8.9856 8.95714 8.89989 8.95715 8.85703 9C8.77132 9.04286 8.72846 9.08572 8.6856 9.17143C8.64275 9.21429 8.64275 9.3 8.64275 9.38572C8.64275 9.42857 8.6856 9.47143 8.77132 9.64286L11.9856 15.2143V8.95714ZM13.0142 8.95714V15.2571L16.2713 9.64286C16.3142 9.55714 16.3142 9.47143 16.3142 9.38572C16.3142 9.3 16.3142 9.21429 16.2713 9.17143C16.2285 9.12857 16.2285 9.08572 16.1856 9.08572L16.1427 9.04286C16.057 9 15.9713 9 15.8427 9H13.0142V8.95714Z" fill="white"/>
</g>
<defs>
<clipPath id="clip0_22639_1296">
<rect width="24" height="24" fill="white" transform="translate(0.5)"/>
</clipPath>
</defs>
</svg>
