<svg width="20" height="20" viewBox="0 0 20 20" fill="none" xmlns="http://www.w3.org/2000/svg">
<g id="USDT">
<g id="usdt">
<g id="Group">
<path id="Shape" d="M20 10C20 15.523 15.523 20 10 20C4.4772 20 0 15.523 0 10C0 4.4771 4.4772 0 10 0C15.523 0 20 4.4771 20 10Z" fill="#1BA27A"/>
<path id="Shape_2" d="M14.6936 5.04257H5.22461V7.32857H8.81611V10.6886H11.1021V7.32857H14.6936V5.04257Z" fill="white"/>
<path id="Shape_3" d="M9.97981 11.0465C7.00881 11.0465 4.60011 10.5763 4.60011 9.99619C4.60011 9.41619 7.00871 8.94589 9.97981 8.94589C12.9508 8.94589 15.3594 9.41619 15.3594 9.99619C15.3594 10.5763 12.9508 11.0465 9.97981 11.0465ZM16.0203 10.1713C16.0203 9.42329 13.3159 8.81699 9.97981 8.81699C6.64381 8.81699 3.93921 9.42329 3.93921 10.1713C3.93921 10.83 6.03631 11.3788 8.81521 11.5004V16.3238H11.101V11.5023C13.9013 11.3845 16.0203 10.8334 16.0203 10.1713Z" fill="white"/>
</g>
</g>
</g>
</svg>
