<svg width="25" height="24" viewBox="0 0 25 24" fill="none" xmlns="http://www.w3.org/2000/svg">
<path d="M3.539 7.91501H19.5C20.605 7.91501 21.5 8.81001 21.5 9.91501V19C21.5 20.1 20.6 21 19.5 21H5.5C4.395 21 3.5 20.105 3.5 19V8.29101C3.5 7.45901 4.015 6.71401 4.794 6.42001L15.147 2.51101C15.801 2.26401 16.5 2.74701 16.5 3.44601V7.91401" stroke="white" stroke-width="1.5" stroke-linecap="round" stroke-linejoin="round"/>
<path d="M16.499 14.125C16.292 14.126 16.125 14.294 16.125 14.501C16.125 14.708 16.293 14.876 16.5 14.875C16.707 14.875 16.875 14.707 16.875 14.5C16.875 14.293 16.707 14.125 16.499 14.125" stroke="white" stroke-width="1.5" stroke-linecap="round" stroke-linejoin="round"/>
</svg>
