<svg width="25" height="24" viewBox="0 0 25 24" fill="none" xmlns="http://www.w3.org/2000/svg">
<path d="M9.5 8.01801H15.5" stroke="white" stroke-width="1.5" stroke-linecap="round" stroke-linejoin="round"/>
<path d="M9.5 12H12.5" stroke="white" stroke-width="1.5" stroke-linecap="round" stroke-linejoin="round"/>
<path d="M5 4H16.5C17.0304 4 17.5391 4.21071 17.9142 4.58579C18.2893 4.96086 18.5 5.46957 18.5 6V16" stroke="white" stroke-width="1.5" stroke-linecap="round" stroke-linejoin="round"/>
<path d="M8 20H19.5C20.0304 20 20.5391 19.7893 20.9142 19.4142C21.2893 19.0391 21.5 18.5304 21.5 18V17C21.5 16.7348 21.3946 16.4804 21.2071 16.2929C21.0196 16.1054 20.7652 16 20.5 16H10.5C10.2348 16 9.98043 16.1054 9.79289 16.2929C9.60536 16.4804 9.5 16.7348 9.5 17V18.5C9.5 18.8978 9.34196 19.2794 9.06066 19.5607C8.77936 19.842 8.39782 20 8 20ZM8 20C7.60218 20 7.22064 19.842 6.93934 19.5607C6.65804 19.2794 6.5 18.8978 6.5 18.5V5.5C6.5 5.10218 6.34196 4.72064 6.06066 4.43934C5.77936 4.15804 5.39782 4 5 4C4.60218 4 4.22064 4.15804 3.93934 4.43934C3.65804 4.72064 3.5 5.10218 3.5 5.5V8C3.5 8.26522 3.60536 8.51957 3.79289 8.70711C3.98043 8.89464 4.23478 9 4.5 9H6.5" stroke="white" stroke-width="1.5" stroke-linecap="round" stroke-linejoin="round"/>
</svg>
