<svg width="25" height="24" viewBox="0 0 25 24" fill="none" xmlns="http://www.w3.org/2000/svg">
<path fill-rule="evenodd" clip-rule="evenodd" d="M21.441 5.13388C21.9292 4.64573 21.9292 3.85427 21.441 3.36612C20.9529 2.87796 20.1614 2.87796 19.6733 3.36612L13.1295 9.90987L14.7065 11.8685L21.441 5.13388ZM10.2964 12.743L11.8738 14.7012L5.32715 21.2478C4.839 21.7359 4.04754 21.7359 3.55938 21.2478C3.07123 20.7596 3.07123 19.9682 3.55938 19.48L10.2964 12.743Z" fill="#C2C2C2"/>
<path d="M6.97209 3.06512H5.32104C4.24378 3.06512 3.70515 3.06512 3.47995 3.34866C3.40972 3.43709 3.36036 3.54023 3.33556 3.65039C3.25603 4.00364 3.59393 4.4231 4.26972 5.26202L16.9843 21.0456C17.161 21.2649 17.2493 21.3746 17.3657 21.4437C17.4041 21.4665 17.4445 21.4858 17.4863 21.5014C17.6131 21.5487 17.7539 21.5487 18.0356 21.5487H19.6799C20.7568 21.5487 21.2953 21.5487 21.5205 21.2652C21.5908 21.1768 21.6401 21.0737 21.6649 20.9636C21.7445 20.6104 21.4068 20.1909 20.7314 19.3521L8.02363 3.5685C7.84694 3.34905 7.7586 3.23933 7.64219 3.17021C7.60377 3.14741 7.56339 3.12808 7.52154 3.11246C7.3947 3.06512 7.25383 3.06512 6.97209 3.06512Z" fill="white"/>
</svg>
