<svg width="20" height="17" viewBox="0 0 20 17" fill="none" xmlns="http://www.w3.org/2000/svg">
<g id="Layer 2">
<g id="Layer 1">
<path id="Vector" d="M17.0702 0H19.9608L13.9452 5.95625C11.7667 8.11211 8.23467 8.11211 6.05459 5.95625L0.0366211 0H2.92959L7.4999 4.52461C8.16579 5.1809 9.06319 5.5488 9.99814 5.5488C10.9331 5.5488 11.8305 5.1809 12.4964 4.52461L17.0702 0Z" fill="#23292F"/>
<path id="Vector_2" d="M2.89258 16.5625H0L6.05469 10.5695C8.2332 8.41367 11.7652 8.41367 13.9453 10.5695L20 16.5625H17.1094L12.5 12.0012C11.8341 11.3449 10.9367 10.977 10.0018 10.977C9.06681 10.977 8.16941 11.3449 7.50352 12.0012L2.89258 16.5625Z" fill="#23292F"/>
</g>
</g>
</svg>
